<svg width="179" height="77" viewBox="0 0 179 77" fill="none" xmlns="http://www.w3.org/2000/svg">
<path d="M161.98 56.023V39.223H166.66V49.087L173.596 39.223H178.06V56.023H173.38V46.183L166.468 56.023H161.98Z" fill="white"/>
<path d="M148.063 55.015C145.823 55.015 143.927 54.727 142.375 54.151C140.839 53.575 139.671 52.735 138.871 51.631C138.087 50.511 137.695 49.159 137.695 47.575C137.695 45.975 138.087 44.623 138.871 43.519C139.671 42.399 140.847 41.551 142.399 40.975C143.951 40.399 145.847 40.111 148.087 40.111C148.119 40.111 148.223 40.111 148.399 40.111C148.591 40.111 148.783 40.111 148.975 40.111C149.167 40.111 149.271 40.111 149.287 40.111C151.511 40.111 153.375 40.407 154.879 40.999C156.399 41.575 157.551 42.423 158.335 43.543C159.119 44.647 159.511 45.991 159.511 47.575C159.511 49.143 159.127 50.487 158.359 51.607C157.607 52.711 156.487 53.559 154.999 54.151C153.511 54.727 151.679 55.015 149.503 55.015C149.471 55.015 149.343 55.015 149.119 55.015C148.895 55.015 148.679 55.015 148.471 55.015C148.263 55.015 148.127 55.015 148.063 55.015ZM148.495 51.367C148.543 51.367 148.615 51.367 148.711 51.367C148.823 51.367 148.903 51.367 148.951 51.367C150.327 51.367 151.455 51.231 152.335 50.959C153.215 50.687 153.863 50.271 154.279 49.711C154.695 49.151 154.903 48.431 154.903 47.551C154.903 46.655 154.687 45.935 154.255 45.391C153.823 44.847 153.175 44.447 152.311 44.191C151.447 43.919 150.343 43.783 148.999 43.783C148.951 43.783 148.871 43.783 148.759 43.783C148.663 43.783 148.575 43.783 148.495 43.783C147.055 43.783 145.879 43.911 144.967 44.167C144.055 44.423 143.383 44.831 142.951 45.391C142.519 45.935 142.303 46.663 142.303 47.575C142.303 48.471 142.535 49.199 142.999 49.759C143.479 50.319 144.175 50.727 145.087 50.983C146.015 51.239 147.151 51.367 148.495 51.367ZM146.431 56.815V38.431H150.775V56.815H146.431Z" fill="white"/>
<path d="M126.947 56.359C125.603 56.359 124.363 56.143 123.227 55.711C122.091 55.279 121.099 54.671 120.251 53.887C119.419 53.087 118.771 52.159 118.307 51.103C117.843 50.047 117.611 48.887 117.611 47.623C117.611 46.359 117.843 45.199 118.307 44.143C118.771 43.087 119.419 42.167 120.251 41.383C121.099 40.583 122.091 39.967 123.227 39.535C124.363 39.103 125.603 38.887 126.947 38.887C128.307 38.887 129.547 39.103 130.667 39.535C131.803 39.967 132.787 40.583 133.619 41.383C134.451 42.167 135.099 43.087 135.563 44.143C136.043 45.199 136.283 46.359 136.283 47.623C136.283 48.887 136.043 50.055 135.563 51.127C135.099 52.183 134.451 53.103 133.619 53.887C132.787 54.671 131.803 55.279 130.667 55.711C129.547 56.143 128.307 56.359 126.947 56.359ZM126.947 52.423C127.587 52.423 128.179 52.311 128.723 52.087C129.283 51.863 129.763 51.543 130.163 51.127C130.579 50.695 130.899 50.183 131.123 49.591C131.363 48.999 131.483 48.343 131.483 47.623C131.483 46.887 131.363 46.231 131.123 45.655C130.899 45.063 130.579 44.559 130.163 44.143C129.763 43.711 129.283 43.383 128.723 43.159C128.179 42.935 127.587 42.823 126.947 42.823C126.307 42.823 125.707 42.935 125.147 43.159C124.603 43.383 124.123 43.711 123.707 44.143C123.307 44.559 122.987 45.063 122.747 45.655C122.523 46.231 122.411 46.887 122.411 47.623C122.411 48.343 122.523 48.999 122.747 49.591C122.987 50.183 123.307 50.695 123.707 51.127C124.123 51.543 124.603 51.863 125.147 52.087C125.707 52.311 126.307 52.423 126.947 52.423Z" fill="white"/>
<path d="M101.159 56.023V39.223H108.839C110.375 39.223 111.695 39.471 112.799 39.967C113.919 40.463 114.783 41.183 115.391 42.127C115.999 43.055 116.303 44.159 116.303 45.439C116.303 46.703 115.999 47.799 115.391 48.727C114.783 49.655 113.919 50.375 112.799 50.887C111.695 51.383 110.375 51.631 108.839 51.631H103.799L105.911 49.567V56.023H101.159ZM105.911 50.071L103.799 47.887H108.551C109.543 47.887 110.279 47.671 110.759 47.239C111.255 46.807 111.503 46.207 111.503 45.439C111.503 44.655 111.255 44.047 110.759 43.615C110.279 43.183 109.543 42.967 108.551 42.967H103.799L105.911 40.783V50.071Z" fill="white"/>
<path d="M81.7999 56.023V39.223H97.5679V56.023H92.8639V41.935L93.9199 42.991H85.4479L86.4799 41.935V56.023H81.7999Z" fill="white"/>
<path d="M119.722 35.023V18.223H127.402C128.938 18.223 130.258 18.471 131.362 18.967C132.482 19.463 133.346 20.183 133.954 21.127C134.562 22.055 134.866 23.159 134.866 24.439C134.866 25.703 134.562 26.799 133.954 27.727C133.346 28.655 132.482 29.375 131.362 29.887C130.258 30.383 128.938 30.631 127.402 30.631H122.362L124.474 28.567V35.023H119.722ZM124.474 29.071L122.362 26.887H127.114C128.106 26.887 128.842 26.671 129.322 26.239C129.818 25.807 130.066 25.207 130.066 24.439C130.066 23.655 129.818 23.047 129.322 22.615C128.842 22.183 128.106 21.967 127.114 21.967H122.362L124.474 19.783V29.071Z" fill="#10DA6B"/>
<path d="M101.933 35.023V18.223H115.973V21.895H106.613V24.607H110.957C113.005 24.607 114.565 25.039 115.637 25.903C116.725 26.767 117.269 28.015 117.269 29.647C117.269 31.327 116.661 32.647 115.445 33.607C114.229 34.551 112.525 35.023 110.333 35.023H101.933ZM106.613 31.615H110.021C110.805 31.615 111.405 31.455 111.821 31.135C112.253 30.815 112.469 30.359 112.469 29.767C112.469 28.583 111.653 27.991 110.021 27.991H106.613V31.615Z" fill="#10DA6B"/>
<path d="M90.056 35.359C88.712 35.359 87.472 35.143 86.336 34.711C85.2 34.279 84.208 33.671 83.36 32.887C82.528 32.087 81.88 31.159 81.416 30.103C80.952 29.047 80.72 27.887 80.72 26.623C80.72 25.359 80.952 24.199 81.416 23.143C81.88 22.087 82.528 21.167 83.36 20.383C84.208 19.583 85.2 18.967 86.336 18.535C87.472 18.103 88.712 17.887 90.056 17.887C91.416 17.887 92.656 18.103 93.776 18.535C94.912 18.967 95.896 19.583 96.728 20.383C97.56 21.167 98.208 22.087 98.672 23.143C99.152 24.199 99.392 25.359 99.392 26.623C99.392 27.887 99.152 29.055 98.672 30.127C98.208 31.183 97.56 32.103 96.728 32.887C95.896 33.671 94.912 34.279 93.776 34.711C92.656 35.143 91.416 35.359 90.056 35.359ZM90.056 31.423C90.696 31.423 91.288 31.311 91.832 31.087C92.392 30.863 92.872 30.543 93.272 30.127C93.688 29.695 94.008 29.183 94.232 28.591C94.472 27.999 94.592 27.343 94.592 26.623C94.592 25.887 94.472 25.231 94.232 24.655C94.008 24.063 93.688 23.559 93.272 23.143C92.872 22.711 92.392 22.383 91.832 22.159C91.288 21.935 90.696 21.823 90.056 21.823C89.416 21.823 88.816 21.935 88.256 22.159C87.712 22.383 87.232 22.711 86.816 23.143C86.416 23.559 86.096 24.063 85.856 24.655C85.632 25.231 85.52 25.887 85.52 26.623C85.52 27.343 85.632 27.999 85.856 28.591C86.096 29.183 86.416 29.695 86.816 30.127C87.232 30.543 87.712 30.863 88.256 31.087C88.816 31.311 89.416 31.423 90.056 31.423Z" fill="#10DA6B"/>
<path fill-rule="evenodd" clip-rule="evenodd" d="M33.8934 8.15364C33.6868 8.03485 33.4324 8.03485 33.2258 8.15364L7.12893 23.1527C6.92242 23.2715 6.79512 23.4908 6.79512 23.7283V53.7264C6.79512 53.9639 6.92242 54.1833 7.12893 54.3021L20.2152 61.8237C20.5734 62.0295 20.7941 62.4099 20.7941 62.8217V68.8327C20.7941 69.2763 20.3117 69.5534 19.9258 69.3313L1.45414 58.7148C0.627875 58.2399 0.118896 57.3623 0.118896 56.4124V21.0422C0.118896 20.0924 0.627875 19.2148 1.45414 18.7399L32.2244 1.05483C33.0506 0.579947 34.0686 0.579947 34.8949 1.05483L65.6652 18.7399C66.4914 19.2148 66.9999 20.0924 66.9999 21.0422V56.4124C66.9999 57.3623 66.4914 58.2399 65.6652 58.7148L41.7102 72.4828C41.3243 72.7043 40.842 72.4271 40.842 71.9836V65.9731C40.842 65.5615 41.0626 65.1807 41.4208 64.9746L59.9902 54.3021C60.1967 54.1833 60.324 53.9639 60.324 53.7264V23.7283C60.324 23.4908 60.1967 23.2715 59.9902 23.1527L33.8934 8.15364ZM41.3078 34.9397C41.1016 34.8205 40.8473 34.8198 40.6405 34.9378L34.5252 38.4272C34.318 38.5455 34.19 38.7649 34.1896 39.0027L34.1404 75.9108C34.1395 76.6194 33.3693 77.0623 32.7524 76.709L27.7724 73.8557C27.5927 73.7533 27.4821 73.5626 27.4823 73.3558L27.4968 57.9488L16.1088 51.4337C14.8656 50.7224 14.099 49.4037 14.099 47.9762V29.4852C14.099 28.061 14.862 26.7449 16.1007 26.0324L33.9555 15.7371C34.1621 15.6179 34.417 15.6177 34.6239 15.7366L39.9911 18.8212C40.4364 19.0771 40.4362 19.7169 39.9909 19.9726L34.2666 23.2594L21.1089 30.8276C20.9025 30.9463 20.7752 31.1657 20.7752 31.403V46.0532C20.7752 46.2911 20.903 46.5109 21.1103 46.6295L27.504 50.2873L27.5164 37.0702C27.5187 35.6434 28.2867 34.3264 29.5302 33.6168L38.9913 28.2183C40.2319 27.5104 41.7576 27.5147 42.9944 28.2294L52.2952 33.6046C53.5299 34.3182 54.2898 35.632 54.2898 37.0533V48.0674C54.2898 49.4976 53.5205 50.8182 52.2736 51.5286L41.8222 56.9579C41.3778 57.1888 40.8458 56.8678 40.8458 56.3687V50.704C40.8458 50.4639 40.9759 50.2425 41.1861 50.1248L47.2732 46.7164C47.4834 46.5986 47.6135 46.3772 47.6135 46.1371V38.9666C47.6135 38.7297 47.4869 38.5108 47.2811 38.3918L41.3078 34.9397Z" fill="#10DA6B"/>
</svg>
